<svg width="290" height="70" viewBox="0 0 290 70" fill="none" xmlns="http://www.w3.org/2000/svg">
<path d="M52.23 30.61L48.39 30.17C46.71 21.19 40.1 13.93 31.48 11.32L30.86 5.9C30.8 5.39 30.37 5 29.85 5C29.33 5 28.9 5.39 28.84 5.9L28.3 10.59C27.03 10.39 25.73 10.28 24.41 10.28C10.95 10.27 0 21.21 0 34.67C0 48.13 10.95 59.08 24.41 59.08C25.75 59.08 27.06 58.97 28.34 58.76L28.84 63.15C28.9 63.66 29.33 64.05 29.85 64.05C30.37 64.05 30.8 63.66 30.86 63.15L31.45 58.04C41.49 55.01 48.82 45.68 48.82 34.67C48.82 34.12 48.79 33.57 48.76 33.03L52.24 32.63C52.75 32.57 53.14 32.14 53.14 31.62C53.14 31.1 52.75 30.67 52.24 30.61H52.23ZM44.17 29.68L43.09 29.56C34.18 28.54 33.01 24.4 31.99 15.74C37.99 18.15 42.57 23.32 44.17 29.69V29.68ZM24.41 55.08C13.14 55.08 4 45.94 4 34.67C4 23.4 13.14 14.27 24.41 14.27C25.58 14.27 26.73 14.39 27.84 14.58L27.79 15.03C26.74 24.19 25.76 34.32 16.6 35.37L9.47 36.42C8.96 36.48 8.57 36.91 8.57 37.43C8.57 37.95 8.96 38.38 9.47 38.44L16.6 39.49C25.76 40.54 26.74 44.86 27.79 54.02L27.88 54.76C26.75 54.95 25.6 55.08 24.41 55.08ZM44.81 34.67C44.81 43.27 39.48 50.61 31.95 53.62C32.98 44.57 34.06 34.71 43.09 33.68L44.75 33.49C44.77 33.88 44.81 34.27 44.81 34.67Z" fill="#F5F5F5"/>
<path d="M86.22 52.675C83.17 52.675 80.51 51.975 78.25 50.585C75.99 49.195 74.24 47.155 73 44.455C71.76 41.755 71.14 38.445 71.14 34.525C71.14 30.605 71.76 27.255 73 24.575C74.24 21.895 75.99 19.855 78.25 18.465C80.52 17.075 83.17 16.375 86.22 16.375C89.27 16.375 91.98 17.075 94.24 18.465C96.5 19.855 98.25 21.895 99.49 24.575C100.73 27.255 101.35 30.575 101.35 34.525C101.35 38.475 100.73 41.755 99.49 44.455C98.25 47.155 96.5 49.195 94.24 50.585C91.98 51.975 89.3 52.675 86.22 52.675ZM86.22 47.595C88.06 47.595 89.65 47.175 91 46.335C92.34 45.495 93.4 44.305 94.17 42.765C94.94 41.225 95.33 39.395 95.33 37.285V31.755C95.33 29.615 94.94 27.765 94.17 26.225C93.4 24.685 92.34 23.505 91 22.685C89.66 21.865 88.07 21.455 86.22 21.455C84.37 21.455 82.87 21.865 81.49 22.685C80.12 23.505 79.05 24.685 78.3 26.225C77.55 27.765 77.17 29.605 77.17 31.755V37.285C77.17 39.395 77.55 41.225 78.3 42.765C79.05 44.305 80.12 45.495 81.49 46.335C82.86 47.175 84.44 47.595 86.22 47.595Z" fill="#F5F5F5"/>
<path d="M112.51 37.945V52.075H106.83V16.975H121.96C124.07 16.975 125.87 17.395 127.36 18.235C128.85 19.075 130.02 20.275 130.85 21.825C131.69 23.385 132.11 25.265 132.11 27.485C132.11 29.935 131.53 32.015 130.38 33.745C129.23 35.475 127.54 36.665 125.33 37.335L132.87 52.065H126.54L119.55 37.935H112.51V37.945ZM112.51 33.115H121.56C122.5 33.115 123.31 32.945 124 32.615C124.69 32.285 125.21 31.785 125.58 31.135C125.95 30.485 126.13 29.685 126.13 28.745V26.335C126.13 25.365 125.95 24.555 125.58 23.925C125.21 23.285 124.68 22.805 124 22.465C123.31 22.135 122.5 21.965 121.56 21.965H114.01C113.18 21.965 112.51 22.635 112.51 23.465V33.125V33.115Z" fill="#F5F5F5"/>
<path d="M138.15 52.065V16.975H153.68C156.56 16.975 158.84 17.795 160.52 19.435C162.2 21.075 163.03 23.275 163.03 26.025C163.03 27.765 162.72 29.165 162.1 30.225C161.48 31.285 160.71 32.055 159.79 32.565C158.87 33.065 157.92 33.525 156.95 33.625C157.69 33.655 158.47 33.985 159.31 34.305C160.15 34.625 160.94 35.105 161.7 35.735C162.46 36.365 163.07 37.205 163.56 38.225C164.05 39.245 164.29 40.495 164.29 41.975C164.29 43.855 163.9 45.565 163.11 47.105C162.32 48.645 161.25 49.865 159.89 50.745C158.53 51.635 156.98 52.075 155.24 52.075H138.15V52.065ZM143.83 23.355V31.805H152.63C153.57 31.805 154.36 31.645 155.02 31.325C155.67 31.005 156.18 30.535 156.53 29.915C156.88 29.295 157.06 28.535 157.06 27.625V26.015C157.06 25.145 156.88 24.395 156.53 23.775C156.18 23.155 155.68 22.675 155.02 22.345C154.37 22.015 153.57 21.845 152.63 21.845H145.33C144.5 21.845 143.83 22.515 143.83 23.345V23.355ZM143.83 36.535V47.195H153.58C154.55 47.195 155.39 47.015 156.09 46.665C156.79 46.315 157.34 45.815 157.72 45.155C158.1 44.505 158.3 43.685 158.3 42.715V41.005C158.3 40.065 158.11 39.265 157.72 38.595C157.33 37.925 156.79 37.415 156.09 37.065C155.39 36.715 154.55 36.535 153.58 36.535H143.83Z" fill="#F5F5F5"/>
<path d="M174.59 52.065H168.9L168.87 16.975H174.59V52.065Z" fill="#F5F5F5"/>
<path d="M203.05 22.005H193.59V52.065H187.91V22.005H177.45V16.975H204.86L203.04 22.005H203.05Z" fill="#F5F5F5"/>
<path d="M229.45 52.065H223.52L220.45 42.565H207.33L204.21 52.065H198.48L210.45 16.975H217.54L229.45 52.065ZM219.05 37.695L215.29 26.515C214.82 25.125 212.86 25.125 212.4 26.515L208.64 37.695H219.05Z" fill="#F5F5F5"/>
<path d="M252.18 52.065L240.72 32.715L239.33 30.125C238.64 28.845 236.7 29.335 236.7 30.785V52.065H231.27V16.975H237.65L249.06 36.325L250.22 38.565C250.93 39.945 253.02 39.465 253.05 37.905L253.08 36.175V16.975H258.51V52.065H252.18Z" fill="#F5F5F5"/>
<path d="M288.03 22.005H278.57V52.065H272.89V22.005H262.43V16.975H289.02L288.02 22.005H288.03Z" fill="#F5F5F5"/>
</svg>
