<svg width="495" height="151" viewBox="0 0 495 151" fill="none" xmlns="http://www.w3.org/2000/svg">
<rect width="495" height="151" fill="#121212"/>
<path d="M147.23 71.61L143.39 71.17C141.71 62.19 135.1 54.93 126.48 52.32L125.86 46.9C125.8 46.39 125.37 46 124.85 46C124.33 46 123.9 46.39 123.84 46.9L123.3 51.59C122.03 51.39 120.73 51.28 119.41 51.28C105.95 51.27 95 62.21 95 75.67C95 89.13 105.95 100.08 119.41 100.08C120.75 100.08 122.06 99.97 123.34 99.76L123.84 104.15C123.9 104.66 124.33 105.05 124.85 105.05C125.37 105.05 125.8 104.66 125.86 104.15L126.45 99.04C136.49 96.01 143.82 86.68 143.82 75.67C143.82 75.12 143.79 74.57 143.76 74.03L147.24 73.63C147.75 73.57 148.14 73.14 148.14 72.62C148.14 72.1 147.75 71.67 147.24 71.61H147.23ZM139.17 70.68L138.09 70.56C129.18 69.54 128.01 65.4 126.99 56.74C132.99 59.15 137.57 64.32 139.17 70.69V70.68ZM119.41 96.08C108.14 96.08 99 86.94 99 75.67C99 64.4 108.14 55.27 119.41 55.27C120.58 55.27 121.73 55.39 122.84 55.58L122.79 56.03C121.74 65.19 120.76 75.32 111.6 76.37L104.47 77.42C103.96 77.48 103.57 77.91 103.57 78.43C103.57 78.95 103.96 79.38 104.47 79.44L111.6 80.49C120.76 81.54 121.74 85.86 122.79 95.02L122.88 95.76C121.75 95.95 120.6 96.08 119.41 96.08ZM139.81 75.67C139.81 84.27 134.48 91.61 126.95 94.62C127.98 85.57 129.06 75.71 138.09 74.68L139.75 74.49C139.77 74.88 139.81 75.27 139.81 75.67Z" fill="#F5F5F5"/>
<path d="M181.22 93.675C178.17 93.675 175.51 92.975 173.25 91.585C170.99 90.195 169.24 88.155 168 85.455C166.76 82.755 166.14 79.445 166.14 75.525C166.14 71.605 166.76 68.255 168 65.575C169.24 62.895 170.99 60.855 173.25 59.465C175.52 58.075 178.17 57.375 181.22 57.375C184.27 57.375 186.98 58.075 189.24 59.465C191.5 60.855 193.25 62.895 194.49 65.575C195.73 68.255 196.35 71.575 196.35 75.525C196.35 79.475 195.73 82.755 194.49 85.455C193.25 88.155 191.5 90.195 189.24 91.585C186.98 92.975 184.3 93.675 181.22 93.675ZM181.22 88.595C183.06 88.595 184.65 88.175 186 87.335C187.34 86.495 188.4 85.305 189.17 83.765C189.94 82.225 190.33 80.395 190.33 78.285V72.755C190.33 70.615 189.94 68.765 189.17 67.225C188.4 65.685 187.34 64.505 186 63.685C184.66 62.865 183.07 62.455 181.22 62.455C179.37 62.455 177.87 62.865 176.49 63.685C175.12 64.505 174.05 65.685 173.3 67.225C172.55 68.765 172.17 70.605 172.17 72.755V78.285C172.17 80.395 172.55 82.225 173.3 83.765C174.05 85.305 175.12 86.495 176.49 87.335C177.86 88.175 179.44 88.595 181.22 88.595Z" fill="#F5F5F5"/>
<path d="M207.51 78.9451V93.0751H201.83V57.9751H216.96C219.07 57.9751 220.87 58.3951 222.36 59.2351C223.85 60.0751 225.02 61.2751 225.85 62.8251C226.69 64.3851 227.11 66.2651 227.11 68.4851C227.11 70.9351 226.53 73.0151 225.38 74.7451C224.23 76.4751 222.54 77.6651 220.33 78.3351L227.87 93.0651H221.54L214.55 78.9351H207.51V78.9451ZM207.51 74.1151H216.56C217.5 74.1151 218.31 73.9451 219 73.6151C219.69 73.2851 220.21 72.7851 220.58 72.1351C220.95 71.4851 221.13 70.6851 221.13 69.7451V67.3351C221.13 66.3651 220.95 65.5551 220.58 64.9251C220.21 64.2851 219.68 63.8051 219 63.4651C218.31 63.1351 217.5 62.9651 216.56 62.9651H209.01C208.18 62.9651 207.51 63.6351 207.51 64.4651V74.1251V74.1151Z" fill="#F5F5F5"/>
<path d="M233.15 93.0651V57.9751H248.68C251.56 57.9751 253.84 58.7951 255.52 60.4351C257.2 62.0751 258.03 64.2751 258.03 67.0251C258.03 68.7651 257.72 70.1651 257.1 71.2251C256.48 72.2851 255.71 73.0551 254.79 73.5651C253.87 74.0651 252.92 74.5251 251.95 74.6251C252.69 74.6551 253.47 74.9851 254.31 75.3051C255.15 75.6251 255.94 76.1051 256.7 76.7351C257.46 77.3651 258.07 78.2051 258.56 79.2251C259.05 80.2451 259.29 81.4951 259.29 82.9751C259.29 84.8551 258.9 86.5651 258.11 88.1051C257.32 89.6451 256.25 90.8651 254.89 91.7451C253.53 92.6351 251.98 93.0751 250.24 93.0751H233.15V93.0651ZM238.83 64.3551V72.8051H247.63C248.57 72.8051 249.36 72.6451 250.02 72.3251C250.67 72.0051 251.18 71.5351 251.53 70.9151C251.88 70.2951 252.06 69.5351 252.06 68.6251V67.0151C252.06 66.1451 251.88 65.3951 251.53 64.7751C251.18 64.1551 250.68 63.6751 250.02 63.3451C249.37 63.0151 248.57 62.8451 247.63 62.8451H240.33C239.5 62.8451 238.83 63.5151 238.83 64.3451V64.3551ZM238.83 77.5351V88.1951H248.58C249.55 88.1951 250.39 88.0151 251.09 87.6651C251.79 87.3151 252.34 86.8151 252.72 86.1551C253.1 85.5051 253.3 84.6851 253.3 83.7151V82.0051C253.3 81.0651 253.11 80.2651 252.72 79.5951C252.33 78.9251 251.79 78.4151 251.09 78.0651C250.39 77.7151 249.55 77.5351 248.58 77.5351H238.83Z" fill="#F5F5F5"/>
<path d="M269.59 93.0651H263.9L263.87 57.9751H269.59V93.0651Z" fill="#F5F5F5"/>
<path d="M298.05 63.0051H288.59V93.0651H282.91V63.0051H272.45V57.9751H299.86L298.04 63.0051H298.05Z" fill="#F5F5F5"/>
<path d="M324.45 93.0651H318.52L315.45 83.5651H302.33L299.21 93.0651H293.48L305.45 57.9751H312.54L324.45 93.0651ZM314.05 78.6951L310.29 67.5151C309.82 66.1251 307.86 66.1251 307.4 67.5151L303.64 78.6951H314.05Z" fill="#F5F5F5"/>
<path d="M347.18 93.0651L335.72 73.7151L334.33 71.1251C333.64 69.8451 331.7 70.3351 331.7 71.7851V93.0651H326.27V57.9751H332.65L344.06 77.3251L345.22 79.5651C345.93 80.9451 348.02 80.4651 348.05 78.9051L348.08 77.1751V57.9751H353.51V93.0651H347.18Z" fill="#F5F5F5"/>
<path d="M383.03 63.0051H373.57V93.0651H367.89V63.0051H357.43V57.9751H384.02L383.02 63.0051H383.03Z" fill="#F5F5F5"/>
</svg>
